<mxfile host="app.diagrams.net" modified="2022-02-06T23:07:56.707Z" agent="5.0 (Windows)" etag="McdhDnDn_b3JSW_6sAfD" version="16.5.3" type="gitlab">
  <diagram id="xLs7mM1S-vncSruOQYJG" name="Page-1">
    <mxGraphModel dx="2854" dy="971" grid="1" gridSize="10" guides="1" tooltips="1" connect="1" arrows="1" fold="1" page="1" pageScale="1" pageWidth="850" pageHeight="1100" background="none" math="0" shadow="0">
      <root>
        <mxCell id="0" />
        <object label="Background" id="1">
          <mxCell parent="0" />
        </object>
        <mxCell id="bW8zysbPbXfA33rAzGtO-46" value="" style="rounded=0;whiteSpace=wrap;html=1;labelBackgroundColor=none;fillColor=#FFE9CC;strokeColor=#d79b00;shadow=0;" vertex="1" parent="1">
          <mxGeometry x="400" y="300" width="720" height="320" as="geometry" />
        </mxCell>
        <mxCell id="ZgqzLkNpqH_WLmXpxmUH-3" value="" style="rounded=0;whiteSpace=wrap;html=1;labelBackgroundColor=none;fillColor=#FFE9CC;strokeColor=#d79b00;" parent="1" vertex="1">
          <mxGeometry x="30" y="10" width="1090" height="290" as="geometry" />
        </mxCell>
        <mxCell id="lUieYn43trCVNQSoQYE8-16" value="" style="rounded=0;whiteSpace=wrap;html=1;labelBackgroundColor=none;fillColor=#CBF2CB;strokeColor=#06962D;gradientColor=none;" parent="1" vertex="1">
          <mxGeometry x="-680" y="70" width="200" height="220" as="geometry" />
        </mxCell>
        <mxCell id="lUieYn43trCVNQSoQYE8-18" value="Minecraft &lt;br&gt;Version Specific" style="rounded=0;whiteSpace=wrap;html=1;labelBackgroundColor=none;fillColor=#CBF2CB;strokeColor=#06962D;gradientColor=none;" parent="1" vertex="1">
          <mxGeometry x="-680" y="10" width="200" height="60" as="geometry" />
        </mxCell>
        <mxCell id="gNZkowd1tYjNP-PxMyY5-1" value="Minecraft" style="rounded=0;whiteSpace=wrap;html=1;fillColor=#A5E8A5;strokeColor=#82b366;" parent="1" vertex="1">
          <mxGeometry x="-650" y="205" width="140" height="50" as="geometry" />
        </mxCell>
        <mxCell id="XNAtI1EKQKx7pIlif8ke-27" style="edgeStyle=orthogonalEdgeStyle;rounded=0;orthogonalLoop=1;jettySize=auto;html=1;exitX=1;exitY=0.5;exitDx=0;exitDy=0;strokeWidth=3;" parent="1" source="lUieYn43trCVNQSoQYE8-14" target="XNAtI1EKQKx7pIlif8ke-22" edge="1">
          <mxGeometry relative="1" as="geometry" />
        </mxCell>
        <mxCell id="lUieYn43trCVNQSoQYE8-14" value="Mod API&lt;br&gt;(Forge or Fabric)" style="rounded=0;whiteSpace=wrap;html=1;fillColor=#A5E8A5;strokeColor=#82b366;" parent="1" vertex="1">
          <mxGeometry x="-650" y="90" width="140" height="60" as="geometry" />
        </mxCell>
        <mxCell id="ZgqzLkNpqH_WLmXpxmUH-2" value="Distant Horizons Core&lt;br&gt;(Version Independent)" style="rounded=0;whiteSpace=wrap;html=1;labelBackgroundColor=none;fillColor=#FFE9CC;strokeColor=#d79b00;" parent="1" vertex="1">
          <mxGeometry x="450" y="10" width="220" height="60" as="geometry" />
        </mxCell>
        <mxCell id="XNAtI1EKQKx7pIlif8ke-16" style="edgeStyle=orthogonalEdgeStyle;rounded=0;orthogonalLoop=1;jettySize=auto;html=1;exitX=1;exitY=0.5;exitDx=0;exitDy=0;entryX=0;entryY=0.25;entryDx=0;entryDy=0;strokeWidth=3;" parent="1" source="XNAtI1EKQKx7pIlif8ke-1" target="XNAtI1EKQKx7pIlif8ke-11" edge="1">
          <mxGeometry relative="1" as="geometry">
            <Array as="points">
              <mxPoint x="10" y="120" />
              <mxPoint x="10" y="176" />
            </Array>
          </mxGeometry>
        </mxCell>
        <mxCell id="XNAtI1EKQKx7pIlif8ke-72" style="edgeStyle=orthogonalEdgeStyle;rounded=0;orthogonalLoop=1;jettySize=auto;html=1;entryX=0.5;entryY=0;entryDx=0;entryDy=0;fontColor=#FFFFFF;strokeWidth=3;" parent="1" source="XNAtI1EKQKx7pIlif8ke-11" target="bW8zysbPbXfA33rAzGtO-39" edge="1">
          <mxGeometry relative="1" as="geometry">
            <Array as="points">
              <mxPoint x="134" y="90" />
              <mxPoint x="1000" y="90" />
            </Array>
            <mxPoint x="997.5" y="165.0000000000001" as="targetPoint" />
          </mxGeometry>
        </mxCell>
        <mxCell id="XNAtI1EKQKx7pIlif8ke-1" value="Wrappers&lt;br&gt;Or&lt;br&gt;&lt;div&gt;DH-Object&lt;/div&gt;" style="shape=step;perimeter=stepPerimeter;whiteSpace=wrap;html=1;fixedSize=1;fillColor=#FFD7B0;strokeColor=#d79b00;rounded=0;labelBackgroundColor=none;" parent="1" vertex="1">
          <mxGeometry x="-170" y="80" width="120" height="80" as="geometry" />
        </mxCell>
        <mxCell id="XNAtI1EKQKx7pIlif8ke-23" style="edgeStyle=orthogonalEdgeStyle;rounded=0;orthogonalLoop=1;jettySize=auto;html=1;exitX=1;exitY=0.5;exitDx=0;exitDy=0;entryX=0;entryY=0.5;entryDx=0;entryDy=0;strokeWidth=3;" parent="1" source="XNAtI1EKQKx7pIlif8ke-3" target="XNAtI1EKQKx7pIlif8ke-21" edge="1">
          <mxGeometry relative="1" as="geometry" />
        </mxCell>
        <mxCell id="XNAtI1EKQKx7pIlif8ke-3" value="Mixins" style="shape=step;perimeter=stepPerimeter;whiteSpace=wrap;html=1;fixedSize=1;fillColor=#A5E8A5;strokeColor=#82b366;rounded=0;labelBackgroundColor=none;" parent="1" vertex="1">
          <mxGeometry x="-470" y="190" width="120" height="80" as="geometry" />
        </mxCell>
        <mxCell id="XNAtI1EKQKx7pIlif8ke-4" value="" style="endArrow=classic;html=1;rounded=0;strokeWidth=3;entryX=0;entryY=0.5;entryDx=0;entryDy=0;exitX=1;exitY=0.5;exitDx=0;exitDy=0;" parent="1" source="gNZkowd1tYjNP-PxMyY5-1" target="XNAtI1EKQKx7pIlif8ke-3" edge="1">
          <mxGeometry width="50" height="50" relative="1" as="geometry">
            <mxPoint x="-420" y="130" as="sourcePoint" />
            <mxPoint x="-220" y="-25" as="targetPoint" />
          </mxGeometry>
        </mxCell>
        <mxCell id="XNAtI1EKQKx7pIlif8ke-17" style="edgeStyle=orthogonalEdgeStyle;rounded=0;orthogonalLoop=1;jettySize=auto;html=1;exitX=1;exitY=0.5;exitDx=0;exitDy=0;entryX=0;entryY=0.75;entryDx=0;entryDy=0;strokeWidth=3;" parent="1" source="XNAtI1EKQKx7pIlif8ke-5" target="XNAtI1EKQKx7pIlif8ke-11" edge="1">
          <mxGeometry relative="1" as="geometry" />
        </mxCell>
        <mxCell id="XNAtI1EKQKx7pIlif8ke-5" value="Wrappers&lt;br&gt;Or&lt;br&gt;&lt;div&gt;DH-Object&lt;/div&gt;" style="shape=step;perimeter=stepPerimeter;whiteSpace=wrap;html=1;fixedSize=1;fillColor=#FFD7B0;strokeColor=#d79b00;rounded=0;labelBackgroundColor=none;" parent="1" vertex="1">
          <mxGeometry x="-170" y="190" width="120" height="80" as="geometry" />
        </mxCell>
        <mxCell id="XNAtI1EKQKx7pIlif8ke-60" style="edgeStyle=orthogonalEdgeStyle;rounded=0;orthogonalLoop=1;jettySize=auto;html=1;exitX=1;exitY=0.5;exitDx=0;exitDy=0;fontColor=#FFFFFF;strokeWidth=3;" parent="1" source="XNAtI1EKQKx7pIlif8ke-11" target="XNAtI1EKQKx7pIlif8ke-33" edge="1">
          <mxGeometry relative="1" as="geometry" />
        </mxCell>
        <mxCell id="XNAtI1EKQKx7pIlif8ke-63" style="edgeStyle=orthogonalEdgeStyle;rounded=0;orthogonalLoop=1;jettySize=auto;html=1;exitX=0.5;exitY=1;exitDx=0;exitDy=0;entryX=0;entryY=0.5;entryDx=0;entryDy=0;fontColor=#FFFFFF;strokeWidth=3;" parent="1" source="XNAtI1EKQKx7pIlif8ke-11" target="lUieYn43trCVNQSoQYE8-19" edge="1">
          <mxGeometry relative="1" as="geometry" />
        </mxCell>
        <mxCell id="XNAtI1EKQKx7pIlif8ke-11" value="core.api" style="rounded=0;whiteSpace=wrap;html=1;labelBackgroundColor=none;fillColor=#FFD7B0;strokeColor=#d79b00;" parent="1" vertex="1">
          <mxGeometry x="60" y="165" width="147.5" height="45" as="geometry" />
        </mxCell>
        <mxCell id="XNAtI1EKQKx7pIlif8ke-25" style="edgeStyle=orthogonalEdgeStyle;rounded=0;orthogonalLoop=1;jettySize=auto;html=1;exitX=1;exitY=0.5;exitDx=0;exitDy=0;entryX=0;entryY=0.5;entryDx=0;entryDy=0;strokeWidth=3;" parent="1" source="XNAtI1EKQKx7pIlif8ke-21" target="XNAtI1EKQKx7pIlif8ke-5" edge="1">
          <mxGeometry relative="1" as="geometry" />
        </mxCell>
        <mxCell id="XNAtI1EKQKx7pIlif8ke-21" value="" style="shape=step;perimeter=stepPerimeter;whiteSpace=wrap;html=1;fixedSize=1;fillColor=#C7C7C7;strokeColor=#666666;fontColor=#333333;rounded=0;labelBackgroundColor=none;" parent="1" vertex="1">
          <mxGeometry x="-320" y="175" width="120" height="85" as="geometry" />
        </mxCell>
        <mxCell id="XNAtI1EKQKx7pIlif8ke-26" style="edgeStyle=orthogonalEdgeStyle;rounded=0;orthogonalLoop=1;jettySize=auto;html=1;exitX=1;exitY=0.5;exitDx=0;exitDy=0;entryX=0;entryY=0.5;entryDx=0;entryDy=0;strokeWidth=3;" parent="1" source="XNAtI1EKQKx7pIlif8ke-22" target="XNAtI1EKQKx7pIlif8ke-1" edge="1">
          <mxGeometry relative="1" as="geometry" />
        </mxCell>
        <mxCell id="XNAtI1EKQKx7pIlif8ke-22" value="" style="shape=step;perimeter=stepPerimeter;whiteSpace=wrap;html=1;fixedSize=1;fillColor=#C7C7C7;strokeColor=#666666;fontColor=#333333;rounded=0;labelBackgroundColor=none;" parent="1" vertex="1">
          <mxGeometry x="-320" y="90" width="120" height="85" as="geometry" />
        </mxCell>
        <mxCell id="XNAtI1EKQKx7pIlif8ke-28" value="&lt;div&gt;Wrapper&lt;/div&gt;&lt;div&gt;Factory&lt;br&gt;&lt;/div&gt;" style="rounded=0;whiteSpace=wrap;html=1;labelBackgroundColor=none;fillColor=#FFD7B0;strokeColor=#d79b00;fontColor=default;" parent="1" vertex="1">
          <mxGeometry x="-290" y="110" width="60" height="130" as="geometry" />
        </mxCell>
        <mxCell id="bW8zysbPbXfA33rAzGtO-44" style="edgeStyle=orthogonalEdgeStyle;rounded=0;orthogonalLoop=1;jettySize=auto;html=1;exitX=1;exitY=0.5;exitDx=0;exitDy=0;entryX=0;entryY=0.5;entryDx=0;entryDy=0;strokeWidth=3;" edge="1" parent="1" source="XNAtI1EKQKx7pIlif8ke-31" target="bW8zysbPbXfA33rAzGtO-39">
          <mxGeometry relative="1" as="geometry" />
        </mxCell>
        <mxCell id="XNAtI1EKQKx7pIlif8ke-31" value="GPU Buffer building" style="rounded=0;whiteSpace=wrap;html=1;labelBackgroundColor=none;fillColor=#FFD7B0;strokeColor=#d79b00;" parent="1" vertex="1">
          <mxGeometry x="710" y="165" width="130" height="45" as="geometry" />
        </mxCell>
        <mxCell id="XNAtI1EKQKx7pIlif8ke-67" style="edgeStyle=orthogonalEdgeStyle;rounded=0;orthogonalLoop=1;jettySize=auto;html=1;exitX=1;exitY=0.5;exitDx=0;exitDy=0;entryX=0;entryY=0.25;entryDx=0;entryDy=0;fontColor=#FFFFFF;strokeWidth=3;" parent="1" source="XNAtI1EKQKx7pIlif8ke-33" target="XNAtI1EKQKx7pIlif8ke-54" edge="1">
          <mxGeometry relative="1" as="geometry" />
        </mxCell>
        <mxCell id="XNAtI1EKQKx7pIlif8ke-33" value="Lod Building" style="rounded=0;whiteSpace=wrap;html=1;labelBackgroundColor=none;fillColor=#FFD7B0;strokeColor=#d79b00;" parent="1" vertex="1">
          <mxGeometry x="290" y="165" width="120" height="45" as="geometry" />
        </mxCell>
        <mxCell id="XNAtI1EKQKx7pIlif8ke-52" value="" style="group" parent="1" vertex="1" connectable="0">
          <mxGeometry x="460" y="110" width="200" height="175" as="geometry" />
        </mxCell>
        <mxCell id="bW8zysbPbXfA33rAzGtO-25" value="" style="group" vertex="1" connectable="0" parent="XNAtI1EKQKx7pIlif8ke-52">
          <mxGeometry width="200" height="175" as="geometry" />
        </mxCell>
        <mxCell id="XNAtI1EKQKx7pIlif8ke-53" value="LOD Storage" style="rounded=0;whiteSpace=wrap;html=1;labelBackgroundColor=none;fillColor=#ffe6cc;strokeColor=#d79b00;" parent="bW8zysbPbXfA33rAzGtO-25" vertex="1">
          <mxGeometry width="200" height="45" as="geometry" />
        </mxCell>
        <mxCell id="XNAtI1EKQKx7pIlif8ke-54" value="" style="rounded=0;whiteSpace=wrap;html=1;labelBackgroundColor=none;fillColor=#FFF4E8;strokeColor=#d79b00;" parent="bW8zysbPbXfA33rAzGtO-25" vertex="1">
          <mxGeometry y="45" width="200" height="130" as="geometry" />
        </mxCell>
        <mxCell id="XNAtI1EKQKx7pIlif8ke-55" value="Memory Storage" style="rounded=0;whiteSpace=wrap;html=1;labelBackgroundColor=none;fillColor=#FFD7B0;strokeColor=#d79b00;" parent="bW8zysbPbXfA33rAzGtO-25" vertex="1">
          <mxGeometry x="10" y="115" width="180" height="45" as="geometry" />
        </mxCell>
        <mxCell id="XNAtI1EKQKx7pIlif8ke-56" value="&lt;div&gt;File Storage&lt;/div&gt;" style="rounded=0;whiteSpace=wrap;html=1;labelBackgroundColor=none;fillColor=#FFD7B0;strokeColor=#d79b00;" parent="bW8zysbPbXfA33rAzGtO-25" vertex="1">
          <mxGeometry x="10" y="60" width="180" height="45" as="geometry" />
        </mxCell>
        <mxCell id="XNAtI1EKQKx7pIlif8ke-61" value="" style="group" parent="1" vertex="1" connectable="0">
          <mxGeometry x="130" y="310" width="220" height="200" as="geometry" />
        </mxCell>
        <mxCell id="lUieYn43trCVNQSoQYE8-13" value="" style="rounded=0;whiteSpace=wrap;html=1;labelBackgroundColor=none;fillColor=#C7C7C7;strokeColor=#666666;fontColor=#333333;" parent="XNAtI1EKQKx7pIlif8ke-61" vertex="1">
          <mxGeometry y="70" width="220" height="130" as="geometry" />
        </mxCell>
        <mxCell id="lUieYn43trCVNQSoQYE8-19" value="Distant Horizons&lt;br&gt;(Version dependent)" style="rounded=0;whiteSpace=wrap;html=1;labelBackgroundColor=none;fillColor=#C7C7C7;strokeColor=#666666;fontColor=#333333;" parent="XNAtI1EKQKx7pIlif8ke-61" vertex="1">
          <mxGeometry width="220" height="70" as="geometry" />
        </mxCell>
        <mxCell id="XNAtI1EKQKx7pIlif8ke-19" value="Chunk Generation" style="rounded=0;whiteSpace=wrap;html=1;labelBackgroundColor=none;fillColor=#EBEBEB;strokeColor=#666666;fontColor=#333333;" parent="XNAtI1EKQKx7pIlif8ke-61" vertex="1">
          <mxGeometry x="12.5" y="80" width="195" height="45" as="geometry" />
        </mxCell>
        <mxCell id="XNAtI1EKQKx7pIlif8ke-29" value="&lt;div&gt;Chunk loading from file&lt;/div&gt;" style="rounded=0;whiteSpace=wrap;html=1;labelBackgroundColor=none;fillColor=#EBEBEB;strokeColor=#666666;fontColor=#333333;" parent="XNAtI1EKQKx7pIlif8ke-61" vertex="1">
          <mxGeometry x="12.5" y="140" width="195" height="45" as="geometry" />
        </mxCell>
        <mxCell id="XNAtI1EKQKx7pIlif8ke-64" style="edgeStyle=orthogonalEdgeStyle;rounded=0;orthogonalLoop=1;jettySize=auto;html=1;exitX=1;exitY=0.5;exitDx=0;exitDy=0;entryX=0.5;entryY=1;entryDx=0;entryDy=0;fontColor=#FFFFFF;strokeWidth=3;" parent="1" source="lUieYn43trCVNQSoQYE8-19" target="XNAtI1EKQKx7pIlif8ke-33" edge="1">
          <mxGeometry relative="1" as="geometry" />
        </mxCell>
        <mxCell id="XNAtI1EKQKx7pIlif8ke-66" style="edgeStyle=orthogonalEdgeStyle;rounded=0;orthogonalLoop=1;jettySize=auto;html=1;exitX=1;exitY=0.25;exitDx=0;exitDy=0;entryX=0;entryY=0.5;entryDx=0;entryDy=0;fontColor=#FFFFFF;strokeWidth=3;" parent="1" source="XNAtI1EKQKx7pIlif8ke-54" target="XNAtI1EKQKx7pIlif8ke-31" edge="1">
          <mxGeometry relative="1" as="geometry" />
        </mxCell>
        <mxCell id="bW8zysbPbXfA33rAzGtO-23" value="" style="group" vertex="1" connectable="0" parent="1">
          <mxGeometry x="455" y="324" width="210" height="270" as="geometry" />
        </mxCell>
        <mxCell id="bW8zysbPbXfA33rAzGtO-16" value="Memory Storage" style="rounded=0;whiteSpace=wrap;html=1;labelBackgroundColor=none;fillColor=#ffe6cc;strokeColor=#d79b00;" vertex="1" parent="bW8zysbPbXfA33rAzGtO-23">
          <mxGeometry width="210" height="45" as="geometry" />
        </mxCell>
        <mxCell id="bW8zysbPbXfA33rAzGtO-17" value="" style="rounded=0;whiteSpace=wrap;html=1;labelBackgroundColor=none;fillColor=#FFF4E8;strokeColor=#d79b00;" vertex="1" parent="bW8zysbPbXfA33rAzGtO-23">
          <mxGeometry y="45" width="210" height="225" as="geometry" />
        </mxCell>
        <mxCell id="bW8zysbPbXfA33rAzGtO-18" value="dimension" style="rounded=0;whiteSpace=wrap;html=1;labelBackgroundColor=none;fillColor=#FFD7B0;strokeColor=#d79b00;" vertex="1" parent="bW8zysbPbXfA33rAzGtO-23">
          <mxGeometry x="10.5" y="110" width="189" height="40" as="geometry" />
        </mxCell>
        <mxCell id="bW8zysbPbXfA33rAzGtO-19" value="World" style="rounded=0;whiteSpace=wrap;html=1;labelBackgroundColor=none;fillColor=#FFD7B0;strokeColor=#d79b00;" vertex="1" parent="bW8zysbPbXfA33rAzGtO-23">
          <mxGeometry x="10.5" y="60" width="189" height="40" as="geometry" />
        </mxCell>
        <mxCell id="bW8zysbPbXfA33rAzGtO-21" value="Region" style="rounded=0;whiteSpace=wrap;html=1;labelBackgroundColor=none;fillColor=#FFD7B0;strokeColor=#d79b00;" vertex="1" parent="bW8zysbPbXfA33rAzGtO-23">
          <mxGeometry x="10.5" y="160" width="189" height="40" as="geometry" />
        </mxCell>
        <mxCell id="bW8zysbPbXfA33rAzGtO-22" value="Level Container&lt;br&gt;(Long primitive)" style="rounded=0;whiteSpace=wrap;html=1;labelBackgroundColor=none;fillColor=#FFD7B0;strokeColor=#d79b00;" vertex="1" parent="bW8zysbPbXfA33rAzGtO-23">
          <mxGeometry x="10.5" y="210" width="189" height="40" as="geometry" />
        </mxCell>
        <mxCell id="bW8zysbPbXfA33rAzGtO-26" value="" style="group" vertex="1" connectable="0" parent="1">
          <mxGeometry x="680" y="419" width="200" height="175" as="geometry" />
        </mxCell>
        <mxCell id="bW8zysbPbXfA33rAzGtO-27" value="Config System" style="rounded=0;whiteSpace=wrap;html=1;labelBackgroundColor=none;fillColor=#ffe6cc;strokeColor=#d79b00;" vertex="1" parent="bW8zysbPbXfA33rAzGtO-26">
          <mxGeometry width="200" height="45" as="geometry" />
        </mxCell>
        <mxCell id="bW8zysbPbXfA33rAzGtO-28" value="" style="rounded=0;whiteSpace=wrap;html=1;labelBackgroundColor=none;fillColor=#FFF4E8;strokeColor=#d79b00;" vertex="1" parent="bW8zysbPbXfA33rAzGtO-26">
          <mxGeometry y="45" width="200" height="130" as="geometry" />
        </mxCell>
        <mxCell id="bW8zysbPbXfA33rAzGtO-29" value="Config GUI" style="rounded=0;whiteSpace=wrap;html=1;labelBackgroundColor=none;fillColor=#FFD7B0;strokeColor=#d79b00;" vertex="1" parent="bW8zysbPbXfA33rAzGtO-26">
          <mxGeometry x="10" y="115" width="180" height="45" as="geometry" />
        </mxCell>
        <mxCell id="bW8zysbPbXfA33rAzGtO-30" value="Config File" style="rounded=0;whiteSpace=wrap;html=1;labelBackgroundColor=none;fillColor=#FFD7B0;strokeColor=#d79b00;" vertex="1" parent="bW8zysbPbXfA33rAzGtO-26">
          <mxGeometry x="10" y="60" width="180" height="45" as="geometry" />
        </mxCell>
        <mxCell id="bW8zysbPbXfA33rAzGtO-38" value="" style="group" vertex="1" connectable="0" parent="1">
          <mxGeometry x="900" y="165" width="200" height="175" as="geometry" />
        </mxCell>
        <mxCell id="bW8zysbPbXfA33rAzGtO-39" value="Rendering" style="rounded=0;whiteSpace=wrap;html=1;labelBackgroundColor=none;fillColor=#ffe6cc;strokeColor=#d79b00;" vertex="1" parent="bW8zysbPbXfA33rAzGtO-38">
          <mxGeometry width="200" height="45" as="geometry" />
        </mxCell>
        <mxCell id="bW8zysbPbXfA33rAzGtO-40" value="" style="rounded=0;whiteSpace=wrap;html=1;labelBackgroundColor=none;fillColor=#FFF4E8;strokeColor=#d79b00;" vertex="1" parent="bW8zysbPbXfA33rAzGtO-38">
          <mxGeometry y="45" width="200" height="130" as="geometry" />
        </mxCell>
        <mxCell id="bW8zysbPbXfA33rAzGtO-41" value="Cloud Rendering" style="rounded=0;whiteSpace=wrap;html=1;labelBackgroundColor=none;fillColor=#FFD7B0;strokeColor=#d79b00;" vertex="1" parent="bW8zysbPbXfA33rAzGtO-38">
          <mxGeometry x="10" y="115" width="180" height="45" as="geometry" />
        </mxCell>
        <mxCell id="bW8zysbPbXfA33rAzGtO-42" value="LOD Rendering" style="rounded=0;whiteSpace=wrap;html=1;labelBackgroundColor=none;fillColor=#FFD7B0;strokeColor=#d79b00;" vertex="1" parent="bW8zysbPbXfA33rAzGtO-38">
          <mxGeometry x="10" y="60" width="180" height="45" as="geometry" />
        </mxCell>
        <mxCell id="bW8zysbPbXfA33rAzGtO-47" value="" style="group" vertex="1" connectable="0" parent="1">
          <mxGeometry x="900" y="419" width="200" height="175" as="geometry" />
        </mxCell>
        <mxCell id="bW8zysbPbXfA33rAzGtO-32" value="Mod Support" style="rounded=0;whiteSpace=wrap;html=1;labelBackgroundColor=none;fillColor=#ffe6cc;strokeColor=#d79b00;" vertex="1" parent="bW8zysbPbXfA33rAzGtO-47">
          <mxGeometry width="200" height="45" as="geometry" />
        </mxCell>
        <mxCell id="bW8zysbPbXfA33rAzGtO-33" value="" style="rounded=0;whiteSpace=wrap;html=1;labelBackgroundColor=none;fillColor=#FFF4E8;strokeColor=#d79b00;" vertex="1" parent="bW8zysbPbXfA33rAzGtO-47">
          <mxGeometry y="45" width="200" height="130" as="geometry" />
        </mxCell>
        <mxCell id="bW8zysbPbXfA33rAzGtO-34" value="Mod API" style="rounded=0;whiteSpace=wrap;html=1;labelBackgroundColor=none;fillColor=#FFD7B0;strokeColor=#d79b00;" vertex="1" parent="bW8zysbPbXfA33rAzGtO-47">
          <mxGeometry x="10" y="115" width="180" height="45" as="geometry" />
        </mxCell>
        <mxCell id="bW8zysbPbXfA33rAzGtO-35" value="&lt;div&gt;Mod Accessors&lt;/div&gt;" style="rounded=0;whiteSpace=wrap;html=1;labelBackgroundColor=none;fillColor=#FFD7B0;strokeColor=#d79b00;" vertex="1" parent="bW8zysbPbXfA33rAzGtO-47">
          <mxGeometry x="10" y="60" width="180" height="45" as="geometry" />
        </mxCell>
        <mxCell id="bW8zysbPbXfA33rAzGtO-20" value="" style="shape=flexArrow;endArrow=classic;html=1;rounded=0;exitX=0.5;exitY=1;exitDx=0;exitDy=0;entryX=0.5;entryY=0;entryDx=0;entryDy=0;" edge="1" parent="1" source="XNAtI1EKQKx7pIlif8ke-55" target="bW8zysbPbXfA33rAzGtO-16">
          <mxGeometry width="50" height="50" relative="1" as="geometry">
            <mxPoint x="410" y="-36" as="sourcePoint" />
            <mxPoint x="360" y="-86" as="targetPoint" />
          </mxGeometry>
        </mxCell>
      </root>
    </mxGraphModel>
  </diagram>
</mxfile>
